<?xml version="1.0" standalone="no"?>
<!DOCTYPE svg PUBLIC "-//W3C//DTD SVG 20010904//EN"
 "http://www.w3.org/TR/2001/REC-SVG-20010904/DTD/svg10.dtd">
<svg version="1.0" xmlns="http://www.w3.org/2000/svg"
 fill="currentColor" class="h-5 w-5" stroke="currentColor" viewBox="0 0 225.000000 225.000000"
 preserveAspectRatio="xMidYMid meet">

<g transform="translate(0.000000,225.000000) scale(0.100000,-0.100000)"
fill="#000000" stroke="none">
<path d="M515 1741 c-90 -22 -140 -80 -158 -185 -29 -170 61 -314 202 -324 92
-7 167 42 210 138 23 51 28 168 10 235 -28 100 -151 163 -264 136z"/>
<path d="M1605 1736 c-59 -17 -118 -75 -134 -132 -18 -66 -13 -183 10 -234 43
-96 118 -145 211 -138 110 8 193 103 205 235 6 67 -16 159 -49 206 -43 60
-152 88 -243 63z"/>
<path d="M1040 1661 c-118 -38 -171 -125 -174 -281 -1 -105 20 -171 75 -233
52 -60 109 -87 184 -87 75 0 132 27 184 87 55 62 76 128 75 233 -3 187 -82
280 -243 286 -42 2 -87 0 -101 -5z"/>
<path d="M329 1191 c-138 -54 -239 -194 -239 -332 l0 -36 103 -22 c88 -18 307
-45 313 -38 1 1 16 31 33 65 65 129 185 224 339 268 8 2 2 18 -19 48 -24 34
-42 47 -75 56 -41 12 -45 11 -74 -13 -35 -30 -82 -42 -158 -40 -57 1 -133 25
-152 49 -15 17 -14 17 -71 -5z"/>
<path d="M1448 1197 c-15 -7 -41 -31 -57 -54 l-30 -42 37 -12 c133 -42 255
-144 312 -260 l32 -64 97 8 c53 4 146 18 206 30 l110 22 3 36 c4 48 -32 152
-70 206 -17 23 -54 58 -82 78 -75 51 -176 82 -176 55 0 -24 -84 -50 -163 -50
-80 0 -132 14 -156 43 -16 20 -26 20 -63 4z"/>
<path d="M1298 1016 c-54 -75 -298 -75 -373 0 -16 16 -20 16 -70 0 -113 -35
-216 -128 -265 -238 -20 -46 -47 -184 -37 -194 3 -3 38 -14 79 -24 246 -63
578 -71 873 -20 188 32 195 35 195 73 0 47 -26 140 -56 198 -38 75 -112 144
-197 184 -101 47 -128 51 -149 21z"/>
</g>
</svg>
