
<svg version="1.1" xmlns="http://www.w3.org/2000/svg" xmlns:xlink="http://www.w3.org/1999/xlink" width="17.6953" height="26.4746"> 
    <g> 
        <rect height="26.4746" opacity="0" width="17.6953" x="0" y="0"/> 
        <path d="M17.334 10.7617L17.334 20.5078C17.334 22.5195 16.3086 23.5352 14.2676 23.5352L3.06641 23.5352C1.02539 23.5352 0 22.5195 0 20.5078L0 10.7617C0 8.75 1.02539 7.73438 3.06641 7.73438L6.00586 7.73438L6.00586 9.30664L3.08594 9.30664C2.10938 9.30664 1.57227 9.83398 1.57227 10.8496L1.57227 20.4199C1.57227 21.4355 2.10938 21.9629 3.08594 21.9629L14.2383 21.9629C15.2051 21.9629 15.7617 21.4355 15.7617 20.4199L15.7617 10.8496C15.7617 9.83398 15.2051 9.30664 14.2383 9.30664L11.3281 9.30664L11.3281 7.73438L14.2676 7.73438C16.3086 7.73438 17.334 8.75 17.334 10.7617Z" fill="#ffffff" fill-opacity="0.85"/> 
        <path d="M8.66211 15.8887C9.08203 15.8887 9.44336 15.5371 9.44336 15.127L9.44336 5.09766L9.38477 3.63281L10.0391 4.32617L11.5234 5.9082C11.6602 6.06445 11.8555 6.14258 12.0508 6.14258C12.4512 6.14258 12.7637 5.84961 12.7637 5.44922C12.7637 5.24414 12.6758 5.08789 12.5293 4.94141L9.22852 1.75781C9.0332 1.5625 8.86719 1.49414 8.66211 1.49414C8.4668 1.49414 8.30078 1.5625 8.0957 1.75781L4.79492 4.94141C4.64844 5.08789 4.57031 5.24414 4.57031 5.44922C4.57031 5.84961 4.86328 6.14258 5.27344 6.14258C5.45898 6.14258 5.67383 6.06445 5.81055 5.9082L7.28516 4.32617L7.94922 3.63281L7.89062 5.09766L7.89062 15.127C7.89062 15.5371 8.24219 15.8887 8.66211 15.8887Z" fill="#ffffff" fill-opacity="0.85"/> 
    </g> 
</svg>



<svg version="1.1" xmlns="http://www.w3.org/2000/svg" xmlns:xlink="http://www.w3.org/1999/xlink" width="37.6953" height="20.7324"> 
    <g> 
    <rect height="20.7324" opacity="0" width="37.6953" x="0" y="0"/> 
    <path d="M37.334 17.7734C37.334 18.8672 36.6699 19.4043 35.3418 19.4043L28.0919 19.4043C28.3734 18.9921 28.5153 18.5005 28.53 17.959L35.5859 17.959C35.791 17.959 35.8789 17.8809 35.8789 17.6855C35.8789 15.2637 33.1152 13.0078 29.9219 13.0078C28.7956 13.0078 27.7227 13.2884 26.809 13.7621C26.4986 13.3875 26.1381 13.0306 25.7333 12.6992C26.9229 11.99 28.3654 11.5625 29.9219 11.5625C34.0137 11.5625 37.334 14.5312 37.334 17.7734ZM33.584 6.42578C33.584 8.64258 31.9434 10.4492 29.9219 10.4492C27.9199 10.4492 26.2598 8.65234 26.2598 6.44531C26.2598 4.28711 27.9199 2.50977 29.9219 2.50977C31.9531 2.50977 33.584 4.25781 33.584 6.42578ZM27.7148 6.44531C27.7148 7.85156 28.7305 8.99414 29.9219 8.99414C31.123 8.99414 32.1387 7.85156 32.1387 6.42578C32.1387 5.04883 31.1523 3.96484 29.9219 3.96484C28.7207 3.96484 27.7148 5.06836 27.7148 6.44531Z" fill="currentColor" fill-opacity="0.85"/> 
    <path d="M11.598 12.7003C11.1942 13.0313 10.8344 13.3877 10.5245 13.7619C9.61097 13.2884 8.53826 13.0078 7.41211 13.0078C4.21875 13.0078 1.45508 15.2637 1.45508 17.6855C1.45508 17.8809 1.54297 17.959 1.74805 17.959L8.80394 17.959C8.81871 18.5005 8.9606 18.9921 9.24162 19.4043L1.98242 19.4043C0.664062 19.4043 0 18.8672 0 17.7734C0 14.5312 3.32031 11.5625 7.41211 11.5625C8.96558 11.5625 10.4078 11.9904 11.598 12.7003ZM11.084 6.42578C11.084 8.64258 9.43359 10.4492 7.42188 10.4492C5.41016 10.4492 3.75977 8.65234 3.75977 6.44531C3.75977 4.28711 5.41016 2.50977 7.42188 2.50977C9.45312 2.50977 11.084 4.25781 11.084 6.42578ZM5.21484 6.44531C5.21484 7.85156 6.2207 8.99414 7.42188 8.99414C8.62305 8.99414 9.63867 7.85156 9.63867 6.42578C9.63867 5.04883 8.65234 3.96484 7.42188 3.96484C6.21094 3.96484 5.21484 5.06836 5.21484 6.44531Z" fill="currentColor" fill-opacity="0.85"/> 
    <path d="M18.6719 10.3613C20.9961 10.3613 22.8906 8.30078 22.8906 5.78125C22.8906 3.28125 21.0059 1.31836 18.6719 1.31836C16.3477 1.31836 14.4531 3.32031 14.4531 5.80078C14.4531 8.31055 16.3477 10.3613 18.6719 10.3613ZM18.6719 8.88672C17.2461 8.88672 16.0254 7.5293 16.0254 5.80078C16.0254 4.10156 17.2168 2.79297 18.6719 2.79297C20.127 2.79297 21.3184 4.07227 21.3184 5.78125C21.3184 7.50977 20.1074 8.88672 18.6719 8.88672ZM12.5293 19.4043L24.7949 19.4043C26.4258 19.4043 27.1973 18.916 27.1973 17.8418C27.1973 15.2832 23.9648 11.582 18.6621 11.582C13.3691 11.582 10.1367 15.2832 10.1367 17.8418C10.1367 18.916 10.9082 19.4043 12.5293 19.4043ZM12.0605 17.9297C11.8066 17.9297 11.709 17.8613 11.709 17.6562C11.709 16.0449 14.1895 13.0566 18.6621 13.0566C23.1445 13.0566 25.625 16.0449 25.625 17.6562C25.625 17.8613 25.5176 17.9297 25.2637 17.9297Z" fill="currentColor" fill-opacity="0.85"/> 
    </g> 
</svg>




<svg version="1.1" xmlns="http://www.w3.org/2000/svg" xmlns:xlink="http://www.w3.org/1999/xlink" width="22.3047" height="17.9199"> 
    <g>
    <rect height="17.9199" opacity="0" width="22.3047" x="0" y="0"/>
    <path d="M9.54102 17.9102C10.2051 17.9102 10.6836 17.4219 10.6836 16.7676L10.6836 13.0371L10.9668 13.0371C14.7559 13.0371 17.1387 13.9941 18.8477 17.1875C19.1895 17.8125 19.6387 17.9102 20.0488 17.9102C20.5664 17.9102 21.0547 17.4414 21.0547 16.6016C21.0547 9.38477 17.998 4.88281 10.9668 4.88281L10.6836 4.88281L10.6836 1.19141C10.6836 0.537109 10.2051 0 9.52148 0C9.04297 0 8.7207 0.205078 8.20312 0.693359L0.498047 7.90039C0.117188 8.26172 0 8.62305 0 8.95508C0 9.27734 0.126953 9.64844 0.498047 10L8.20312 17.2754C8.67188 17.7148 9.0625 17.9102 9.54102 17.9102ZM8.98438 15.8105C8.92578 15.8105 8.86719 15.7812 8.81836 15.7227L1.85547 9.14062C1.77734 9.0625 1.74805 9.01367 1.74805 8.95508C1.74805 8.89648 1.77734 8.83789 1.85547 8.76953L8.80859 2.09961C8.85742 2.06055 8.91602 2.02148 8.97461 2.02148C9.0625 2.02148 9.11133 2.08008 9.11133 2.1582L9.11133 6.03516C9.11133 6.25977 9.21875 6.35742 9.44336 6.35742L10.752 6.35742C17.4512 6.35742 19.4727 11.0059 19.668 15.6152C19.668 15.6934 19.6387 15.7227 19.5898 15.7227C19.5508 15.7227 19.5312 15.6934 19.502 15.625C18.3496 13.1738 15.3906 11.5625 10.752 11.5625L9.44336 11.5625C9.21875 11.5625 9.11133 11.6602 9.11133 11.8848L9.11133 15.6641C9.11133 15.752 9.0625 15.8105 8.98438 15.8105Z" fill="currentColor" fill-opacity="0.85"/> 
    </g> 
</svg>




<svg version="1.1" xmlns="http://www.w3.org/2000/svg" xmlns:xlink="http://www.w3.org/1999/xlink" width="23.6475" height="23.3041"> 
    <g>
    <rect height="23.3041" opacity="0" width="23.6475" x="0" y="0"/>
    <path d="M15.5591 4.88935L6.08643 4.88935C5.10986 4.88935 4.56299 5.41669 4.56299 6.43232L4.56299 17.5163C4.56299 18.5319 5.10986 19.0495 6.08643 19.0495L17.2095 19.0495C18.186 19.0495 18.7231 18.5319 18.7231 17.5163L18.7231 8.12957L20.2954 6.55445L20.2954 17.5944C20.2954 19.6159 19.27 20.6218 17.229 20.6218L6.05713 20.6218C4.02588 20.6218 2.99072 19.6159 2.99072 17.5944L2.99072 6.34443C2.99072 4.33271 4.02588 3.31708 6.05713 3.31708L17.1313 3.31708Z" fill="currentColor" fill-opacity="0.85"/> 
    <path d="M9.61182 14.2936L11.5161 13.4636L20.6372 4.35224L19.2993 3.03388L10.188 12.1452L9.30908 13.9811C9.23096 14.1472 9.42627 14.3718 9.61182 14.2936ZM21.3599 3.63935L22.063 2.91669C22.395 2.56513 22.395 2.09638 22.063 1.77412L21.8384 1.53974C21.5356 1.23701 21.0571 1.27607 20.7349 1.58857L20.022 2.29169Z" fill="currentColor" fill-opacity="0.85"/> 
    </g>
</svg>




<svg version="1.1" xmlns="http://www.w3.org/2000/svg" xmlns:xlink="http://www.w3.org/1999/xlink" width="15.8472" height="15.4956">
    <g> 
    <rect height="15.4956" opacity="0" width="15.8472" x="0" y="0"/> 
    <path d="M0.252699 15.2429C0.594496 15.575 1.1609 15.575 1.49293 15.2429L7.74293 8.99293L13.9929 15.2429C14.325 15.575 14.9011 15.5847 15.2332 15.2429C15.5652 14.9011 15.5652 14.3445 15.2332 14.0125L8.98317 7.7527L15.2332 1.5027C15.5652 1.17067 15.575 0.604261 15.2332 0.27223C14.8914-0.0695668 14.325-0.0695668 13.9929 0.27223L7.74293 6.52223L1.49293 0.27223C1.1609-0.0695668 0.58473-0.0793324 0.252699 0.27223C-0.0793324 0.614027-0.0793324 1.17067 0.252699 1.5027L6.5027 7.7527L0.252699 14.0125C-0.0793324 14.3445-0.0890981 14.9109 0.252699 15.2429Z" fill="currentColor" fill-opacity="0.85"/> 
    </g> 
</svg>



<svg version="1.1" xmlns="http://www.w3.org/2000/svg" xmlns:xlink="http://www.w3.org/1999/xlink" width="17.6953" height="25.3418"> 
    <g> 
    <rect height="25.3418" opacity="0" width="17.6953" x="0" y="0"/> 
    <path d="M17.334 10.1953L17.334 19.9414C17.334 21.9531 16.3086 22.9688 14.2676 22.9688L3.06641 22.9688C1.02539 22.9688 0 21.9531 0 19.9414L0 10.1953C0 8.18359 1.02539 7.16797 3.06641 7.16797L6.00586 7.16797L6.00586 8.74023L3.08594 8.74023C2.10938 8.74023 1.57227 9.26758 1.57227 10.2832L1.57227 19.8535C1.57227 20.8691 2.10938 21.3965 3.08594 21.3965L14.2383 21.3965C15.2051 21.3965 15.7617 20.8691 15.7617 19.8535L15.7617 10.2832C15.7617 9.26758 15.2051 8.74023 14.2383 8.74023L11.3281 8.74023L11.3281 7.16797L14.2676 7.16797C16.3086 7.16797 17.334 8.18359 17.334 10.1953Z" fill="#ffffff" fill-opacity="0.85"/> <path d="M8.66211 16.543C8.86719 16.543 9.0332 16.4844 9.22852 16.2891L12.5293 13.0957C12.6758 12.9492 12.7637 12.793 12.7637 12.5879C12.7637 12.1875 12.4512 11.9043 12.0508 11.9043C11.8555 11.9043 11.6602 11.9824 11.5234 12.1387L10.0391 13.7109L9.38477 14.4043L9.44336 12.9395L9.44336 2.64648C9.44336 2.23633 9.08203 1.88477 8.66211 1.88477C8.24219 1.88477 7.89062 2.23633 7.89062 2.64648L7.89062 12.9395L7.94922 14.4043L7.28516 13.7109L5.81055 12.1387C5.67383 11.9824 5.45898 11.9043 5.27344 11.9043C4.86328 11.9043 4.57031 12.1875 4.57031 12.5879C4.57031 12.793 4.64844 12.9492 4.79492 13.0957L8.0957 16.2891C8.30078 16.4844 8.4668 16.543 8.66211 16.543Z" fill="currentColor" fill-opacity="0.85"/> 
    </g> 
</svg>